<svg width="24" height="24" viewBox="0 0 24 24" fill="none" xmlns="http://www.w3.org/2000/svg">
    <path fill-rule="evenodd" clip-rule="evenodd" d="M2.00031 9V19C2.00031 21.7613 4.23902 24 7.00031 24H17.0003C19.7616 24 22.0003 21.7613 22.0003 19V9C22.0003 8.44772 21.5526 8 21.0003 8H3.00031C2.44802 8 2.00031 8.44772 2.00031 9ZM4.00031 10H20.0003V19C20.0003 20.6567 18.657 22 17.0003 22H7.00031C5.34359 22 4.00031 20.6567 4.00031 19V10Z" fill="#979797"/>
    <path fill-rule="evenodd" clip-rule="evenodd" d="M8.00031 12V6C8.00031 3.79028 9.79059 2 12.0003 2C14.21 2 16.0003 3.79028 16.0003 6V12C16.0003 12.5523 16.448 13 17.0003 13C17.5526 13 18.0003 12.5523 18.0003 12V6C18.0003 2.68572 15.3146 0 12.0003 0C8.68602 0 6.00031 2.68572 6.00031 6V12C6.00031 12.5523 6.44802 13 7.00031 13C7.55259 13 8.00031 12.5523 8.00031 12Z" fill="#B0B0B0"/>
</svg>