<?xml version="1.0" encoding="UTF-8"?>
<svg width="32px" height="31px" viewBox="0 0 32 31" version="1.1" xmlns="http://www.w3.org/2000/svg" xmlns:xlink="http://www.w3.org/1999/xlink">
    <title>Icon/ Settings Copy 3</title>
    <g id="Mobile" stroke="none" stroke-width="1" fill="none" fill-rule="evenodd">
        <g id="06-LOYALTI----Consigue-Likes-Copy" transform="translate(-78.000000, -565.000000)" fill="#6A6A6A" fill-rule="nonzero">
            <g id="Group" transform="translate(78.000000, 565.000000)">
                <g id="star" transform="translate(1.391304, 1.333333)">
                    <path d="M9.204,7.99866667 L-0.194293162,9.38331732 L-0.345501227,9.41407722 C-1.32307407,9.67004581 -1.68284764,10.9189531 -0.933971112,11.6539834 L5.872,18.3346667 L4.26609056,27.7762849 L4.24889522,27.9232904 C4.18436696,28.9395578 5.27172864,29.6726339 6.20486285,29.1781239 L14.608,24.724 L23.0125285,29.1781239 L23.1467415,29.2405192 C24.0916023,29.6202578 25.1284945,28.8173814 24.9513007,27.7762849 L23.344,18.3346667 L30.1513624,11.6539834 L30.2554404,11.5400631 C30.894679,10.7574121 30.4498101,9.53622501 29.4116845,9.38331732 L20.012,7.99866667 L15.806095,-0.586525773 C15.318347,-1.58226919 13.8990443,-1.58226919 13.4112963,-0.586525773 L9.204,7.99866667 Z M14.608,3.02933333 L17.9253832,9.80208834 L18.0061447,9.94421633 C18.2133723,10.2618507 18.5481798,10.4786472 18.9284894,10.5346638 L26.368,11.6306667 L20.9790724,16.9201491 L20.8702568,17.0408042 C20.635309,17.3356073 20.5345119,17.718809 20.5986123,18.0954291 L21.8666667,25.5533333 L15.2330368,22.0374387 L15.0832818,21.9695345 C14.7268198,21.8337263 14.3260458,21.856361 13.9843545,22.0374387 L7.34933333,25.5533333 L8.618779,18.0954291 L8.63624449,17.9338945 C8.65385883,17.5573323 8.51096802,17.1877571 8.23831894,16.9201491 L2.848,11.6306667 L10.2889019,10.5346638 C10.7235415,10.4706448 11.0987497,10.1966276 11.2920081,9.80208834 L14.608,3.02933333 Z" id="Path"></path>
                </g>
            </g>
        </g>
    </g>
</svg>